<?xml version="1.0" encoding="utf-8"?>
<!-- Generator: Adobe Illustrator 16.0.0, SVG Export Plug-In . SVG Version: 6.00 Build 0)  -->
<!DOCTYPE svg PUBLIC "-//W3C//DTD SVG 1.1//EN" "http://www.w3.org/Graphics/SVG/1.1/DTD/svg11.dtd">
<svg version="1.1" id="Layer_1" xmlns="http://www.w3.org/2000/svg" xmlns:xlink="http://www.w3.org/1999/xlink" x="0px" y="0px"
	 width="200px" height="100px" viewBox="0 0 200 100" enable-background="new 0 0 200 100" xml:space="preserve">
<title>E01B2DC3-BF67-4F04-9379-82091B93CFB7</title>
<g>
	<circle fill="#FFFFFF" cx="50.25" cy="50.25" r="47.25"/>
	<path fill="#5AC546" d="M50,100C22.386,100,0,77.614,0,50S22.386,0,50,0c27.613,0,50,22.386,50,50S77.613,100,50,100z
		 M40.069,70.298c0.607,0.001,1.202-0.164,1.723-0.475l28.472-16.978c1.008-0.598,1.626-1.682,1.627-2.854
		c0-1.17-0.617-2.253-1.627-2.855L41.791,30.162c-1.036-0.616-2.322-0.633-3.373-0.043c-1.048,0.587-1.698,1.695-1.7,2.897v33.953
		c0,1.2,0.65,2.305,1.7,2.896C38.922,70.148,39.49,70.298,40.069,70.298L40.069,70.298z"/>
</g>
<g>
	<circle fill="#FFFFFF" cx="150.25" cy="50.25" r="47.25"/>
	<path fill="#49A336" d="M150,100c-27.613,0-50-22.386-50-50s22.387-50,50-50s50,22.386,50,50S177.613,100,150,100z M140.068,70.298
		c0.607,0.001,1.203-0.164,1.724-0.475l28.472-16.978c1.008-0.599,1.627-1.683,1.627-2.854c0-1.17-0.617-2.253-1.627-2.855
		l-28.473-16.974c-1.036-0.616-2.322-0.633-3.373-0.043c-1.048,0.587-1.697,1.695-1.7,2.897v33.953c0,1.2,0.65,2.305,1.7,2.896
		C138.922,70.148,139.49,70.298,140.068,70.298L140.068,70.298z"/>
</g>
</svg>
