<svg xmlns="http://www.w3.org/2000/svg" width="145" height="44" viewBox="0 0 145 44">
    <g fill="none" fill-rule="evenodd">
        <g fill="#292E3D">
            <path d="M63.906 17.773c-.248-.302-.371-.711-.371-1.227 0-.515.123-.924.371-1.226.248-.303.602-.454 1.062-.454h4.406c.61 0 1.077.16 1.4.48.322.32.484.787.484 1.4V21.8c0 .462-.064.85-.193 1.16-.128.311-.329.6-.603.867-.168.16-.416.335-.743.526a6.926 6.926 0 0 1-1.228.54 11.33 11.33 0 0 1-1.738.427c-.668.116-1.422.173-2.263.173-1.513 0-2.857-.206-4.034-.62-1.177-.413-2.167-1.006-2.973-1.78-.805-.773-1.417-1.713-1.837-2.82-.42-1.106-.63-2.357-.63-3.752 0-1.467.223-2.81.67-4.027a8.616 8.616 0 0 1 1.97-3.14c.867-.875 1.944-1.553 3.231-2.033s2.776-.72 4.466-.72c.628 0 1.214.047 1.758.14a9.271 9.271 0 0 1 1.453.36c.425.147.79.307 1.095.48.305.173.537.344.697.513.22.222.38.45.477.68.098.231.146.516.146.854 0 .248-.04.473-.12.673-.079.2-.185.37-.318.513a1.318 1.318 0 0 1-.484.327 1.729 1.729 0 0 1-1.34-.047 26.194 26.194 0 0 0-.836-.36 7.627 7.627 0 0 0-1.175-.36c-.46-.107-1.03-.16-1.712-.16-.787 0-1.501.122-2.143.367a4.413 4.413 0 0 0-1.652 1.093c-.46.485-.816 1.091-1.068 1.82-.252.729-.378 1.582-.378 2.56 0 .986.121 1.853.365 2.6.243.746.594 1.37 1.055 1.873a4.43 4.43 0 0 0 1.678 1.14c.66.258 1.409.387 2.25.387.31 0 .581-.016.816-.047a4.393 4.393 0 0 0 1.041-.26v-3.52h-1.99c-.46 0-.814-.151-1.062-.453M82.986 13.253a29.877 29.877 0 0 1-.305-1.027l-.24-.84a9.088 9.088 0 0 1-.212-.8h-.053l-.199.8c-.07.24-.148.52-.232.84-.084.32-.18.663-.285 1.027l-1.314 4.44h4.246l-1.406-4.44zm-4.731 10.793a1.874 1.874 0 0 1-.405.633 1.63 1.63 0 0 1-.597.373 2.436 2.436 0 0 1-.85.134c-.282 0-.565-.042-.848-.127a2.495 2.495 0 0 1-.77-.38 2.043 2.043 0 0 1-.558-.613 1.57 1.57 0 0 1-.212-.814c0-.168.02-.337.06-.506.04-.169.113-.413.219-.733L78.434 9.8c.097-.285.193-.54.285-.767a5.674 5.674 0 0 1 .604-1.113c.106-.151.226-.293.359-.427a2.964 2.964 0 0 1 1.094-.66c.438-.155.989-.233 1.652-.233.664 0 1.215.078 1.653.233.438.156.802.376 1.094.66.133.134.255.276.365.427.11.151.215.318.312.5.098.182.193.387.285.613.093.227.189.482.286.767l4.14 12.133c.106.32.18.564.22.733.039.169.059.329.059.48a1.7 1.7 0 0 1-.232.893 2.061 2.061 0 0 1-.598.64 2.712 2.712 0 0 1-.81.38 3.164 3.164 0 0 1-.868.127c-.336 0-.63-.05-.883-.147a1.74 1.74 0 0 1-.643-.427 1.848 1.848 0 0 1-.412-.6 7.46 7.46 0 0 1-.305-.84l-.65-2.013h-6.264l-.623 2.014a9.89 9.89 0 0 1-.299.873zM93.767 8.38c.141-.36.34-.669.597-.927.265-.266.624-.475 1.075-.626.451-.151 1.008-.227 1.672-.227.557 0 1.037.06 1.44.18.402.12.743.296 1.022.527.278.23.508.513.69.846.181.334.325.714.43 1.14l2.336 8.586a22.573 22.573 0 0 1 .412 1.747c.053.284.106.547.159.787h.053l.146-.787c.053-.231.11-.498.173-.8.062-.302.137-.613.225-.933l2.349-8.586c.115-.436.261-.82.438-1.154.177-.333.407-.615.69-.846a2.934 2.934 0 0 1 1.022-.527c.398-.12.876-.18 1.433-.18.646 0 1.192.076 1.639.227.447.15.798.355 1.055.613.265.267.467.58.604.94.137.36.236.802.298 1.327l1.38 12.826c.018.204.031.366.04.486.009.12.013.234.013.34 0 .276-.062.525-.185.747a1.865 1.865 0 0 1-.511.58 2.401 2.401 0 0 1-.77.38 3.335 3.335 0 0 1-.962.133c-.327 0-.641-.051-.942-.153a1.849 1.849 0 0 1-.73-.434 1.538 1.538 0 0 1-.418-.766 6.858 6.858 0 0 1-.14-.927l-.756-8.986a21.598 21.598 0 0 1-.053-1.027 33.064 33.064 0 0 1-.013-.88c0-.302.009-.586.026-.853h-.053l-2.999 11.106a8.844 8.844 0 0 1-.451 1.314c-.168.377-.363.673-.584.886a2.055 2.055 0 0 1-.896.527c-.349.102-.763.153-1.24.153-.487 0-.905-.051-1.254-.153a2.055 2.055 0 0 1-.896-.527c-.221-.213-.416-.509-.584-.886a8.848 8.848 0 0 1-.451-1.314l-3.013-11.133h-.053v.84c-.008.258-.02.551-.033.88-.013.33-.033.68-.06 1.054l-.663 9c-.027.328-.069.64-.126.932a1.514 1.514 0 0 1-.431.787 1.77 1.77 0 0 1-.69.413 2.745 2.745 0 0 1-.903.147c-.31 0-.604-.038-.882-.113a2.29 2.29 0 0 1-.737-.34 1.74 1.74 0 0 1-.504-.547 1.433 1.433 0 0 1-.186-.733c0-.125.007-.25.02-.373.013-.125.029-.294.047-.507l1.393-12.88c.053-.524.15-.966.292-1.326M129.273 21.453c.46 0 .825.146 1.095.44.27.293.405.733.405 1.32 0 .595-.135 1.037-.405 1.326-.27.289-.635.433-1.095.433h-8.188c-.654 0-1.163-.182-1.526-.546-.362-.365-.544-.871-.544-1.52V8.666c0-.648.182-1.155.544-1.52.363-.364.872-.546 1.526-.546h8.122c.469 0 .838.144 1.108.433.27.29.405.731.405 1.327 0 .587-.135 1.027-.405 1.32-.27.293-.64.44-1.108.44h-5.56v3.786h4.71c.434 0 .786.147 1.055.44.27.294.405.725.405 1.294 0 .568-.135 1-.405 1.293-.27.293-.621.44-1.055.44h-4.71v4.08h5.626zM143.273 21.453c.46 0 .825.146 1.095.44.27.293.405.733.405 1.32 0 .595-.135 1.037-.405 1.326-.27.289-.635.433-1.095.433h-8.188c-.654 0-1.163-.182-1.526-.546-.362-.365-.544-.871-.544-1.52V8.666c0-.648.182-1.155.544-1.52.363-.364.872-.546 1.526-.546h8.122c.469 0 .838.144 1.108.433.27.29.405.731.405 1.327 0 .587-.135 1.027-.405 1.32-.27.293-.64.44-1.108.44h-5.56v3.786h4.71c.434 0 .786.147 1.055.44.27.294.405.725.405 1.294 0 .568-.135 1-.405 1.293-.27.293-.621.44-1.055.44h-4.71v4.08h5.626z"/>
        </g>
        <path fill="#535B75" d="M37.936.734C35.739 0 34.307 0 29.205 0H15.073C9.971 0 8.54 0 6.343.734A9.39 9.39 0 0 0 .738 6.302C.013 8.447 0 9.858 0 14.715v14.57c0 4.857.013 6.268.739 8.413a9.39 9.39 0 0 0 5.603 5.568C8.54 44 9.971 44 15.073 44h14.132c5.102 0 6.534 0 8.73-.734a9.39 9.39 0 0 0 5.604-5.568c.739-2.183.739-3.606.739-8.677V14.98c0-5.07 0-6.494-.739-8.677A9.39 9.39 0 0 0 37.936.734"/>
        <path fill="#292E3D" d="M30.221 44H27.948a1.14 1.14 0 0 1 1.137-1.019A1.14 1.14 0 0 1 30.22 44zm7.567-11.712c.631 0 1.143.509 1.143 1.136 0 .627-.512 1.135-1.143 1.135a1.139 1.139 0 0 1-1.142-1.135c0-.627.511-1.136 1.142-1.136zm0 4.277c.631 0 1.143.509 1.143 1.136 0 .627-.512 1.135-1.143 1.135a1.139 1.139 0 0 1-1.142-1.135c0-.627.511-1.136 1.142-1.136zm6.127-28.94L34.5 13.067l8.454-8.046c.226.41.423.837.586 1.281.156.462.28.889.376 1.323zm-9.028 35.356c.506 0 .935.327 1.085.78-.644.104-1.343.162-2.216.196a1.14 1.14 0 0 1 1.131-.976zm9.269-33.786c.065.699.095 1.502.11 2.52l-8.481 3.322 8.37-5.842zM36.384.315c.515.102 1.01.238 1.552.419.375.136.739.296 1.09.477l-7.9 8.58L36.384.314zm-7.27 8.244L32.283.01a37.89 37.89 0 0 1 2.523.094l-5.69 8.456zm2.872 32.284c.631 0 1.143.508 1.143 1.135s-.512 1.135-1.143 1.135a1.139 1.139 0 0 1-1.142-1.135c0-.627.511-1.135 1.142-1.135zm-4.044-1.004c0-.627.512-1.135 1.143-1.135.63 0 1.142.508 1.142 1.135s-.511 1.136-1.142 1.136a1.139 1.139 0 0 1-1.143-1.136zm4.044-3.274c.631 0 1.143.509 1.143 1.136 0 .627-.512 1.135-1.143 1.135a1.139 1.139 0 0 1-1.142-1.135c0-.627.511-1.136 1.142-1.136zm6.945 5.413c0 .627-.512 1.135-1.143 1.135a1.139 1.139 0 0 1-1.142-1.135c0-.627.511-1.135 1.142-1.135.631 0 1.143.508 1.143 1.135zm3.517-8.554c0-.627.512-1.136 1.143-1.136.25 0 .483.08.671.217-.012.726-.034 1.34-.073 1.886a1.142 1.142 0 0 1-.598.168 1.139 1.139 0 0 1-1.143-1.135zm1.143-9.69c.258 0 .496.085.687.228v1.815c-.191.143-.43.228-.687.228a1.139 1.139 0 0 1-1.143-1.136c0-.627.512-1.135 1.143-1.135zM27.326 41.978c0 .627-.511 1.135-1.142 1.135a1.139 1.139 0 0 1-1.143-1.135c0-.627.512-1.135 1.143-1.135.63 0 1.142.508 1.142 1.135zm16.952-21.285V22h-2.714c.167.198.268.452.268.73 0 .628-.511 1.136-1.142 1.136a1.139 1.139 0 0 1-1.143-1.135c0-.279.101-.533.269-.731h-.106l-1.992-.259 6.56-1.048zm-.687 7.318c.258 0 .496.085.687.229v1.814a1.142 1.142 0 0 1-.687.228 1.139 1.139 0 0 1-1.143-1.135c0-.627.512-1.136 1.143-1.136zM42.21 3.88l-9.275 7.426 7.258-9.383a9.414 9.414 0 0 1 2.017 1.957zm1.38 32.686c.095 0 .186.012.273.033-.088.36-.194.718-.324 1.1-.129.351-.28.693-.449 1.023a1.135 1.135 0 0 1 .5-2.156zM22.147 44a1.14 1.14 0 0 1 1.136-1.019A1.14 1.14 0 0 1 24.42 44h-2.273zm12.741-5.296c.631 0 1.143.508 1.143 1.135s-.512 1.136-1.143 1.136a1.139 1.139 0 0 1-1.142-1.136c0-.627.511-1.135 1.142-1.135zm9.39-25.24l.001 1.515v.485l-7.515 1.708 7.514-3.708zm.001 5.449l-6.865.51 6.865-2.185v1.675zm-9.39 15.514c.63 0 1.142.508 1.142 1.135s-.512 1.136-1.143 1.136a1.139 1.139 0 0 1-1.142-1.136c0-.627.511-1.135 1.142-1.135zm5.802-8.554c.63 0 1.142.508 1.142 1.135s-.511 1.135-1.142 1.135a1.139 1.139 0 0 1-1.143-1.135c0-.627.512-1.135 1.143-1.135zm0 4.277c.63 0 1.142.508 1.142 1.135s-.511 1.135-1.142 1.135a1.139 1.139 0 0 1-1.143-1.135c0-.627.512-1.135 1.143-1.135zm0 4.277c.63 0 1.142.508 1.142 1.135s-.511 1.136-1.142 1.136a1.139 1.139 0 0 1-1.143-1.136c0-.627.512-1.135 1.143-1.135zM6.727 43.389c-.126-.038-.254-.08-.385-.123a9.395 9.395 0 0 1-1.984-1.001l7.916-7.748-5.547 8.872zM0 29.882v-1.807l7.032-1.22L0 29.882zm41.832 9.957c0 .627-.511 1.136-1.142 1.136a1.139 1.139 0 0 1-1.143-1.136c0-.627.512-1.135 1.143-1.135.63 0 1.142.508 1.142 1.135zM20.173 1.974L22.14.02V0h1.127l-.94 6.792-.187-1.898v-.967l-1.966-1.953zm-18.617 37.4l8.992-6.462L3.244 41.4a9.384 9.384 0 0 1-1.688-2.026zM14.1 0h.058l1.985 1.974-2.014 2.001-2.014-2.001L14.1 0zM8.087 5.977L10.1 3.975l2.015 2.002L10.1 7.98 8.087 5.977zM18.13 0h.057l1.986 1.974-2.014 2.001-2.015-2.001L18.13 0zM.218 35.596l8.86-4.525-8.185 7.016a9.287 9.287 0 0 1-.154-.39 11.817 11.817 0 0 1-.521-2.101zM16.31 44l2.273-6.404L17.91 44H16.31zm3.436 0l1.437-7.477V44h-1.437zm-3.409-7.114L14.478 44c-.727 0-1.375-.001-1.958-.005l3.817-7.11zm-2.118-1.034l-3.498 8.112c-.98-.033-1.743-.093-2.443-.208l5.94-7.904zM.06 33.922a53.568 53.568 0 0 1-.054-2.256l7.891-2.629L.06 33.922zM0 24.719l6.501-.146L0 26.277v-1.558zm6.072-12.736L4.058 9.98l2.014-2.002 2.015 2.002-2.015 2.002zm8.058-4.004l-2.015-2.002 2.015-2.002 2.014 2.002L14.13 7.98zM.065 22l-.036-.008 2.014-2.002 2.015 2.002L4.02 22h.383l1.914.243L0 22.919V22h.065zM26.757 0l-2.092 7.043L25.033 0h1.724zM12.116 1.974L10.1 3.975 8.087 1.974 10.005.067l.183-.01 1.928 1.917zM2.043 19.99L.03 17.988l2.014-2.002 2.015 2.002-2.015 2.002zM30.543 0l-3.598 7.636L28.518 0h2.026zM6.719.615l1.369 1.36-2.015 2.001-2.014-2.001.108-.108A9.397 9.397 0 0 1 6.342.734c.128-.043.253-.083.376-.12zm-2.66 5.363l2.014-2.002 2.015 2.002L6.072 7.98 4.058 5.977zM.068 9.942L2.043 7.98l2.015 2.002-2.015 2.002-1.98-1.968.005-.073zm1.975-5.967l2.015 2.002L2.043 7.98.645 6.589c.03-.094.06-.19.094-.287.284-.774.67-1.5 1.139-2.162l.165-.165zm0 12.011L.03 13.984l2.014-2.001 2.015 2.001-2.015 2.002z"/>
        <path fill="#FFF" d="M40.299 16.654c-.061 3.562-.061 7.124 0 10.686.06 3.562-1.444 6.207-4.515 7.934a304.24 304.24 0 0 0-9.12 5.343c-3.009 1.835-6.019 1.835-9.028 0a302.067 302.067 0 0 0-9.12-5.343c-3.07-1.727-4.574-4.372-4.514-7.934.06-3.562.06-7.124 0-10.686-.061-3.562 1.444-6.207 4.514-7.935 3.07-1.728 6.11-3.509 9.12-5.343 3.01-1.835 6.018-1.835 9.028 0 3.01 1.834 6.05 3.615 9.12 5.343 3.07 1.728 4.575 4.372 4.515 7.935z"/>
        <path fill="#292E3D" d="M33.778 28.708V21.01c0-.341-.267-.607-.572-.607h-9.16a.626.626 0 0 0-.611.607v2.92a.658.658 0 0 0 .649.57h4.007a.6.6 0 0 1 .611.606v1.48c0 .417-.076.72-.305.91-1.298 1.213-2.978 1.782-4.886 1.782-4.275 0-7.442-3.489-7.442-7.737 0-4.324 3.053-7.7 7.442-7.7 1.87 0 3.855.91 5.42 2.277.23.227.572.189.801 0l3.283-3.376c.267-.266.267-.645 0-.873C30.305 9.328 27.099 8 23.51 8 16.145 8 10 14.106 10 21.54c0 7.434 6.107 13.578 13.473 13.578 5.076 0 10.305-3.337 10.305-6.41"/>
    </g>
</svg>
