<?xml version="1.0" encoding="UTF-8" standalone="no"?><svg width="14px" height="18px" viewBox="0 0 14 18" version="1.1" xmlns="http://www.w3.org/2000/svg" xmlns:xlink="http://www.w3.org/1999/xlink">        <title>80104D9F-9A56-439C-BA9E-039B7B823796</title>    <desc>Created with sketchtool.</desc>    <defs></defs>    <g id="Web-detail-hry" stroke="none" stroke-width="1" fill="none" fill-rule="evenodd">        <g id="Web-detail-hry---ingame" transform="translate(-307.000000, -697.000000)" fill="#292E3D">            <g id="Group-2" transform="translate(290.000000, 190.000000)">                <g id="Pause-button" transform="translate(4.000000, 496.000000)">                    <path d="M13,12.9950893 C13,11.8932319 13.8877296,11 15,11 C16.1045695,11 17,11.8926228 17,12.9950893 L17,27.0049107 C17,28.1067681 16.1122704,29 15,29 C13.8954305,29 13,28.1073772 13,27.0049107 L13,12.9950893 Z M23,12.9950893 C23,11.8932319 23.8877296,11 25,11 C26.1045695,11 27,11.8926228 27,12.9950893 L27,27.0049107 C27,28.1067681 26.1122704,29 25,29 C23.8954305,29 23,28.1073772 23,27.0049107 L23,12.9950893 Z" id="ingame-pausebtn"></path>                </g>            </g>        </g>    </g></svg>